<svg xmlns="http://www.w3.org/2000/svg" viewBox="0 0 600 750" role="img" aria-label="Боді Sultry Shield">
  <defs>
    <linearGradient id="bg" x1="0" y1="0" x2="1" y2="1">
      <stop offset="0" stop-color="#1a1114"/>
      <stop offset="1" stop-color="#2a1b1f"/>
    </linearGradient>
    <radialGradient id="glow" cx="0.5" cy="0.35" r="0.7">
      <stop offset="0" stop-color="#d9b899" stop-opacity="0.14"/>
      <stop offset="1" stop-color="#d9b899" stop-opacity="0"/>
    </radialGradient>
  </defs>
  <rect width="600" height="750" fill="url(#bg)"/>
  <rect width="600" height="750" fill="url(#glow)"/>
  <g fill="none" stroke="#d9b899" stroke-width="3" stroke-linecap="round" stroke-linejoin="round">
    <!-- bodysuit silhouette -->
    <path d="M225 150 q30 26 75 26 q45 0 75 -26 q18 64 10 128 q-8 58 -2 116 q6 62 -16 118 q-30 16 -67 16 q-37 0 -67 -16 q-22 -56 -16 -118 q6 -58 -2 -116 q-8 -64 10 -128 z"/>
    <!-- deep neckline -->
    <path d="M258 162 q42 116 84 0"/>
    <!-- waist accents -->
    <path d="M238 392 q62 26 124 0" stroke-opacity="0.6"/>
    <!-- straps -->
    <path d="M225 150 q-8 -22 6 -36" stroke-opacity="0.7"/>
    <path d="M375 150 q8 -22 -6 -36" stroke-opacity="0.7"/>
    <!-- leg cut -->
    <path d="M233 512 q34 -30 42 -66" stroke-opacity="0.5" stroke-dasharray="8 8"/>
    <path d="M367 512 q-34 -30 -42 -66" stroke-opacity="0.5" stroke-dasharray="8 8"/>
  </g>
  <text x="300" y="682" text-anchor="middle" font-family="Georgia, serif" font-size="26" letter-spacing="6" fill="#d9b899" opacity="0.9">БОДІ</text>
  <text x="300" y="712" text-anchor="middle" font-family="Georgia, serif" font-size="14" letter-spacing="4" fill="#8d7466">SULTRY SHIELD · BD001</text>
</svg>
